<mxfile host="app.diagrams.net" modified="2023-12-02T08:17:05.291Z" agent="Mozilla/5.0 (Windows NT 10.0; Win64; x64) AppleWebKit/537.36 (KHTML, like Gecko) Chrome/119.0.0.0 Safari/537.36 Edg/119.0.0.0" etag="PI4N2u6MgrtFOlvmrmoR" version="22.1.5" type="github">
  <diagram id="R2lEEEUBdFMjLlhIrx00" name="Page-1">
    <mxGraphModel dx="1042" dy="577" grid="1" gridSize="10" guides="1" tooltips="1" connect="1" arrows="1" fold="1" page="1" pageScale="1" pageWidth="1100" pageHeight="1700" math="0" shadow="0" extFonts="Permanent Marker^https://fonts.googleapis.com/css?family=Permanent+Marker">
      <root>
        <mxCell id="0" />
        <mxCell id="1" parent="0" />
        <mxCell id="3eUIlnqiGvhLUTWXQRK9-6" value="client" style="swimlane;childLayout=stackLayout;horizontal=1;startSize=40;horizontalStack=0;rounded=1;fontSize=14;fontStyle=0;strokeWidth=2;resizeParent=0;resizeLast=1;shadow=0;dashed=0;align=center;arcSize=0;whiteSpace=wrap;html=1;" vertex="1" parent="1">
          <mxGeometry x="150" y="170" width="87" height="120" as="geometry" />
        </mxCell>
        <mxCell id="3eUIlnqiGvhLUTWXQRK9-7" value="ID&lt;br&gt;age&lt;br&gt;name&lt;br&gt;&lt;br&gt;" style="align=left;strokeColor=none;fillColor=none;spacingLeft=4;fontSize=12;verticalAlign=top;resizable=0;rotatable=0;part=1;html=1;" vertex="1" parent="3eUIlnqiGvhLUTWXQRK9-6">
          <mxGeometry y="40" width="87" height="80" as="geometry" />
        </mxCell>
        <mxCell id="3eUIlnqiGvhLUTWXQRK9-9" value="fin_product" style="swimlane;childLayout=stackLayout;horizontal=1;startSize=50;horizontalStack=0;rounded=1;fontSize=14;fontStyle=0;strokeWidth=2;resizeParent=0;resizeLast=1;shadow=0;dashed=0;align=center;arcSize=4;whiteSpace=wrap;html=1;" vertex="1" parent="1">
          <mxGeometry x="520" y="90" width="100" height="140" as="geometry" />
        </mxCell>
        <mxCell id="3eUIlnqiGvhLUTWXQRK9-10" value="prod_id&lt;br&gt;prod_name&lt;br&gt;" style="align=left;strokeColor=none;fillColor=none;spacingLeft=4;fontSize=12;verticalAlign=top;resizable=0;rotatable=0;part=1;html=1;" vertex="1" parent="3eUIlnqiGvhLUTWXQRK9-9">
          <mxGeometry y="50" width="100" height="90" as="geometry" />
        </mxCell>
        <mxCell id="3eUIlnqiGvhLUTWXQRK9-11" value="Ins_product" style="swimlane;childLayout=stackLayout;horizontal=1;startSize=50;horizontalStack=0;rounded=1;fontSize=14;fontStyle=0;strokeWidth=2;resizeParent=0;resizeLast=1;shadow=0;dashed=0;align=center;arcSize=4;whiteSpace=wrap;html=1;" vertex="1" parent="1">
          <mxGeometry x="520" y="250" width="100" height="150" as="geometry" />
        </mxCell>
        <mxCell id="3eUIlnqiGvhLUTWXQRK9-12" value="ins_id&lt;br&gt;ins_name&lt;br&gt;" style="align=left;strokeColor=none;fillColor=none;spacingLeft=4;fontSize=12;verticalAlign=top;resizable=0;rotatable=0;part=1;html=1;" vertex="1" parent="3eUIlnqiGvhLUTWXQRK9-11">
          <mxGeometry y="50" width="100" height="100" as="geometry" />
        </mxCell>
        <mxCell id="3eUIlnqiGvhLUTWXQRK9-13" value="fund_product" style="swimlane;childLayout=stackLayout;horizontal=1;startSize=50;horizontalStack=0;rounded=1;fontSize=14;fontStyle=0;strokeWidth=2;resizeParent=0;resizeLast=1;shadow=0;dashed=0;align=center;arcSize=4;whiteSpace=wrap;html=1;" vertex="1" parent="1">
          <mxGeometry x="520" y="430" width="100" height="160" as="geometry" />
        </mxCell>
        <mxCell id="3eUIlnqiGvhLUTWXQRK9-14" value="fund_id&lt;br&gt;fund_name&lt;br&gt;" style="align=left;strokeColor=none;fillColor=none;spacingLeft=4;fontSize=12;verticalAlign=top;resizable=0;rotatable=0;part=1;html=1;" vertex="1" parent="3eUIlnqiGvhLUTWXQRK9-13">
          <mxGeometry y="50" width="100" height="110" as="geometry" />
        </mxCell>
        <mxCell id="3eUIlnqiGvhLUTWXQRK9-15" value="Card" style="swimlane;childLayout=stackLayout;horizontal=1;startSize=40;horizontalStack=0;rounded=1;fontSize=14;fontStyle=0;strokeWidth=2;resizeParent=0;resizeLast=1;shadow=0;dashed=0;align=center;arcSize=4;whiteSpace=wrap;html=1;" vertex="1" parent="1">
          <mxGeometry x="143.5" y="460" width="100" height="120" as="geometry" />
        </mxCell>
        <mxCell id="3eUIlnqiGvhLUTWXQRK9-16" value="card_id&lt;br&gt;type" style="align=left;strokeColor=none;fillColor=none;spacingLeft=4;fontSize=12;verticalAlign=top;resizable=0;rotatable=0;part=1;html=1;" vertex="1" parent="3eUIlnqiGvhLUTWXQRK9-15">
          <mxGeometry y="40" width="100" height="80" as="geometry" />
        </mxCell>
        <mxCell id="3eUIlnqiGvhLUTWXQRK9-55" style="edgeStyle=orthogonalEdgeStyle;rounded=0;orthogonalLoop=1;jettySize=auto;html=1;exitX=0.5;exitY=0;exitDx=0;exitDy=0;entryX=0.5;entryY=1;entryDx=0;entryDy=0;" edge="1" parent="1" source="3eUIlnqiGvhLUTWXQRK9-18" target="3eUIlnqiGvhLUTWXQRK9-7">
          <mxGeometry relative="1" as="geometry" />
        </mxCell>
        <mxCell id="3eUIlnqiGvhLUTWXQRK9-18" value="CC" style="shape=rhombus;perimeter=rhombusPerimeter;whiteSpace=wrap;html=1;align=center;" vertex="1" parent="1">
          <mxGeometry x="133.5" y="340" width="120" height="60" as="geometry" />
        </mxCell>
        <mxCell id="3eUIlnqiGvhLUTWXQRK9-23" value="" style="endArrow=none;html=1;rounded=0;entryX=0.5;entryY=1;entryDx=0;entryDy=0;" edge="1" parent="1" target="3eUIlnqiGvhLUTWXQRK9-18">
          <mxGeometry relative="1" as="geometry">
            <mxPoint x="193.5" y="460" as="sourcePoint" />
            <mxPoint x="193.5" y="410" as="targetPoint" />
          </mxGeometry>
        </mxCell>
        <mxCell id="3eUIlnqiGvhLUTWXQRK9-24" value="FIC" style="shape=rhombus;perimeter=rhombusPerimeter;whiteSpace=wrap;html=1;align=center;" vertex="1" parent="1">
          <mxGeometry x="330" y="130" width="120" height="60" as="geometry" />
        </mxCell>
        <mxCell id="3eUIlnqiGvhLUTWXQRK9-28" value="INC" style="shape=rhombus;perimeter=rhombusPerimeter;whiteSpace=wrap;html=1;align=center;" vertex="1" parent="1">
          <mxGeometry x="340" y="260" width="120" height="60" as="geometry" />
        </mxCell>
        <mxCell id="3eUIlnqiGvhLUTWXQRK9-30" value="FUC" style="shape=rhombus;perimeter=rhombusPerimeter;whiteSpace=wrap;html=1;align=center;" vertex="1" parent="1">
          <mxGeometry x="330" y="470" width="120" height="60" as="geometry" />
        </mxCell>
        <mxCell id="3eUIlnqiGvhLUTWXQRK9-33" value="fin_info" style="swimlane;childLayout=stackLayout;horizontal=1;startSize=50;horizontalStack=0;rounded=1;fontSize=14;fontStyle=0;strokeWidth=2;resizeParent=0;resizeLast=1;shadow=0;dashed=0;align=center;arcSize=4;whiteSpace=wrap;html=1;" vertex="1" parent="1">
          <mxGeometry x="740" y="90" width="100" height="140" as="geometry" />
        </mxCell>
        <mxCell id="3eUIlnqiGvhLUTWXQRK9-34" value="prod_name&lt;br&gt;prod_desc&lt;br&gt;prod_price&lt;br&gt;year_lim" style="align=left;strokeColor=none;fillColor=none;spacingLeft=4;fontSize=12;verticalAlign=top;resizable=0;rotatable=0;part=1;html=1;" vertex="1" parent="3eUIlnqiGvhLUTWXQRK9-33">
          <mxGeometry y="50" width="100" height="90" as="geometry" />
        </mxCell>
        <mxCell id="3eUIlnqiGvhLUTWXQRK9-35" value="Ins_info" style="swimlane;childLayout=stackLayout;horizontal=1;startSize=50;horizontalStack=0;rounded=1;fontSize=14;fontStyle=0;strokeWidth=2;resizeParent=0;resizeLast=1;shadow=0;dashed=0;align=center;arcSize=4;whiteSpace=wrap;html=1;" vertex="1" parent="1">
          <mxGeometry x="740" y="255" width="100" height="140" as="geometry" />
        </mxCell>
        <mxCell id="3eUIlnqiGvhLUTWXQRK9-36" value="ins_name&lt;br style=&quot;border-color: var(--border-color);&quot;&gt;target_age&lt;br style=&quot;border-color: var(--border-color);&quot;&gt;ins_desc&lt;br style=&quot;border-color: var(--border-color);&quot;&gt;ins_price&lt;br style=&quot;border-color: var(--border-color);&quot;&gt;year_lim" style="align=left;strokeColor=none;fillColor=none;spacingLeft=4;fontSize=12;verticalAlign=top;resizable=0;rotatable=0;part=1;html=1;" vertex="1" parent="3eUIlnqiGvhLUTWXQRK9-35">
          <mxGeometry y="50" width="100" height="90" as="geometry" />
        </mxCell>
        <mxCell id="3eUIlnqiGvhLUTWXQRK9-37" value="fund_info" style="swimlane;childLayout=stackLayout;horizontal=1;startSize=50;horizontalStack=0;rounded=1;fontSize=14;fontStyle=0;strokeWidth=2;resizeParent=0;resizeLast=1;shadow=0;dashed=0;align=center;arcSize=4;whiteSpace=wrap;html=1;" vertex="1" parent="1">
          <mxGeometry x="740" y="430" width="100" height="140" as="geometry" />
        </mxCell>
        <mxCell id="3eUIlnqiGvhLUTWXQRK9-38" value="fund_name&lt;br&gt;fund_type&lt;br style=&quot;border-color: var(--border-color);&quot;&gt;danger_gd&lt;br style=&quot;border-color: var(--border-color);&quot;&gt;manager&lt;br style=&quot;border-color: var(--border-color);&quot;&gt;fund_price" style="align=left;strokeColor=none;fillColor=none;spacingLeft=4;fontSize=12;verticalAlign=top;resizable=0;rotatable=0;part=1;html=1;" vertex="1" parent="3eUIlnqiGvhLUTWXQRK9-37">
          <mxGeometry y="50" width="100" height="90" as="geometry" />
        </mxCell>
        <mxCell id="3eUIlnqiGvhLUTWXQRK9-57" style="edgeStyle=orthogonalEdgeStyle;rounded=0;orthogonalLoop=1;jettySize=auto;html=1;exitX=1;exitY=0.5;exitDx=0;exitDy=0;entryX=0;entryY=0.5;entryDx=0;entryDy=0;" edge="1" parent="1" source="3eUIlnqiGvhLUTWXQRK9-39" target="3eUIlnqiGvhLUTWXQRK9-33">
          <mxGeometry relative="1" as="geometry" />
        </mxCell>
        <mxCell id="3eUIlnqiGvhLUTWXQRK9-39" value="FI" style="shape=rhombus;perimeter=rhombusPerimeter;whiteSpace=wrap;html=1;align=center;" vertex="1" parent="1">
          <mxGeometry x="640" y="130" width="80" height="60" as="geometry" />
        </mxCell>
        <mxCell id="3eUIlnqiGvhLUTWXQRK9-56" style="edgeStyle=orthogonalEdgeStyle;rounded=0;orthogonalLoop=1;jettySize=auto;html=1;exitX=1;exitY=0.5;exitDx=0;exitDy=0;entryX=0;entryY=0.5;entryDx=0;entryDy=0;" edge="1" parent="1" source="3eUIlnqiGvhLUTWXQRK9-40" target="3eUIlnqiGvhLUTWXQRK9-35">
          <mxGeometry relative="1" as="geometry" />
        </mxCell>
        <mxCell id="3eUIlnqiGvhLUTWXQRK9-40" value="IN" style="shape=rhombus;perimeter=rhombusPerimeter;whiteSpace=wrap;html=1;align=center;" vertex="1" parent="1">
          <mxGeometry x="640" y="300" width="80" height="60" as="geometry" />
        </mxCell>
        <mxCell id="3eUIlnqiGvhLUTWXQRK9-58" style="edgeStyle=orthogonalEdgeStyle;rounded=0;orthogonalLoop=1;jettySize=auto;html=1;exitX=1;exitY=0.5;exitDx=0;exitDy=0;entryX=0;entryY=0.5;entryDx=0;entryDy=0;" edge="1" parent="1" source="3eUIlnqiGvhLUTWXQRK9-41" target="3eUIlnqiGvhLUTWXQRK9-37">
          <mxGeometry relative="1" as="geometry" />
        </mxCell>
        <mxCell id="3eUIlnqiGvhLUTWXQRK9-41" value="FU" style="shape=rhombus;perimeter=rhombusPerimeter;whiteSpace=wrap;html=1;align=center;" vertex="1" parent="1">
          <mxGeometry x="640" y="470" width="80" height="60" as="geometry" />
        </mxCell>
        <mxCell id="3eUIlnqiGvhLUTWXQRK9-42" value="" style="endArrow=none;html=1;rounded=0;exitX=1;exitY=0.5;exitDx=0;exitDy=0;entryX=0;entryY=0.5;entryDx=0;entryDy=0;" edge="1" parent="1" source="3eUIlnqiGvhLUTWXQRK9-24" target="3eUIlnqiGvhLUTWXQRK9-10">
          <mxGeometry width="50" height="50" relative="1" as="geometry">
            <mxPoint x="247" y="220" as="sourcePoint" />
            <mxPoint x="340" y="170" as="targetPoint" />
          </mxGeometry>
        </mxCell>
        <mxCell id="3eUIlnqiGvhLUTWXQRK9-43" value="" style="endArrow=none;html=1;rounded=0;exitX=0.863;exitY=0.607;exitDx=0;exitDy=0;entryX=0;entryY=0.5;entryDx=0;entryDy=0;exitPerimeter=0;" edge="1" parent="1" source="3eUIlnqiGvhLUTWXQRK9-28">
          <mxGeometry width="50" height="50" relative="1" as="geometry">
            <mxPoint x="450" y="300" as="sourcePoint" />
            <mxPoint x="520" y="325" as="targetPoint" />
          </mxGeometry>
        </mxCell>
        <mxCell id="3eUIlnqiGvhLUTWXQRK9-44" value="" style="endArrow=none;html=1;rounded=0;exitX=0.94;exitY=0.533;exitDx=0;exitDy=0;entryX=0;entryY=0.5;entryDx=0;entryDy=0;exitPerimeter=0;" edge="1" parent="1" source="3eUIlnqiGvhLUTWXQRK9-30">
          <mxGeometry width="50" height="50" relative="1" as="geometry">
            <mxPoint x="444" y="501" as="sourcePoint" />
            <mxPoint x="520" y="530" as="targetPoint" />
          </mxGeometry>
        </mxCell>
        <mxCell id="3eUIlnqiGvhLUTWXQRK9-48" value="" style="endArrow=classic;html=1;rounded=0;entryX=1;entryY=0.5;entryDx=0;entryDy=0;exitX=0;exitY=0.5;exitDx=0;exitDy=0;" edge="1" parent="1" source="3eUIlnqiGvhLUTWXQRK9-28" target="3eUIlnqiGvhLUTWXQRK9-7">
          <mxGeometry width="50" height="50" relative="1" as="geometry">
            <mxPoint x="400" y="320" as="sourcePoint" />
            <mxPoint x="450" y="270" as="targetPoint" />
          </mxGeometry>
        </mxCell>
        <mxCell id="3eUIlnqiGvhLUTWXQRK9-49" value="" style="endArrow=classic;html=1;rounded=0;entryX=1.048;entryY=0.9;entryDx=0;entryDy=0;exitX=0;exitY=0.5;exitDx=0;exitDy=0;entryPerimeter=0;" edge="1" parent="1" target="3eUIlnqiGvhLUTWXQRK9-7">
          <mxGeometry width="50" height="50" relative="1" as="geometry">
            <mxPoint x="393" y="470" as="sourcePoint" />
            <mxPoint x="290" y="430" as="targetPoint" />
          </mxGeometry>
        </mxCell>
        <mxCell id="3eUIlnqiGvhLUTWXQRK9-50" value="" style="endArrow=classic;html=1;rounded=0;entryX=1.021;entryY=0.16;entryDx=0;entryDy=0;exitX=0;exitY=0.5;exitDx=0;exitDy=0;entryPerimeter=0;" edge="1" parent="1" source="3eUIlnqiGvhLUTWXQRK9-24" target="3eUIlnqiGvhLUTWXQRK9-7">
          <mxGeometry width="50" height="50" relative="1" as="geometry">
            <mxPoint x="350" y="300" as="sourcePoint" />
            <mxPoint x="247" y="260" as="targetPoint" />
          </mxGeometry>
        </mxCell>
        <mxCell id="3eUIlnqiGvhLUTWXQRK9-52" value="" style="endArrow=none;html=1;rounded=0;exitX=1;exitY=0.25;exitDx=0;exitDy=0;entryX=0;entryY=0.5;entryDx=0;entryDy=0;" edge="1" parent="1" source="3eUIlnqiGvhLUTWXQRK9-10" target="3eUIlnqiGvhLUTWXQRK9-39">
          <mxGeometry width="50" height="50" relative="1" as="geometry">
            <mxPoint x="640" y="250" as="sourcePoint" />
            <mxPoint x="670" y="230" as="targetPoint" />
          </mxGeometry>
        </mxCell>
        <mxCell id="3eUIlnqiGvhLUTWXQRK9-59" value="" style="endArrow=none;html=1;rounded=0;exitX=1;exitY=0.25;exitDx=0;exitDy=0;entryX=0;entryY=0.5;entryDx=0;entryDy=0;" edge="1" parent="1" target="3eUIlnqiGvhLUTWXQRK9-40">
          <mxGeometry width="50" height="50" relative="1" as="geometry">
            <mxPoint x="620" y="336.5" as="sourcePoint" />
            <mxPoint x="670" y="403.5" as="targetPoint" />
          </mxGeometry>
        </mxCell>
        <mxCell id="3eUIlnqiGvhLUTWXQRK9-60" value="" style="endArrow=none;html=1;rounded=0;exitX=1;exitY=0.25;exitDx=0;exitDy=0;entryX=0;entryY=0.5;entryDx=0;entryDy=0;" edge="1" parent="1" target="3eUIlnqiGvhLUTWXQRK9-41">
          <mxGeometry width="50" height="50" relative="1" as="geometry">
            <mxPoint x="620" y="500" as="sourcePoint" />
            <mxPoint x="670" y="567" as="targetPoint" />
          </mxGeometry>
        </mxCell>
      </root>
    </mxGraphModel>
  </diagram>
</mxfile>
